<svg width="204" height="25" viewBox="0 0 204 25" fill="none" xmlns="http://www.w3.org/2000/svg">
<path fill-rule="evenodd" clip-rule="evenodd" d="M43.6512 23.3035C43.6512 23.8104 43.3959 24.0638 42.8852 24.0638H33.8883C33.671 24.0638 33.4944 24.0004 33.3586 23.8737C33.2228 23.747 33.1549 23.5679 33.1549 23.3365C33.1549 23.1382 33.201 22.9784 33.2934 22.8572C33.3858 22.736 33.5297 22.6368 33.7253 22.5597L34.4262 22.3448C34.6 22.2897 34.7358 22.185 34.8336 22.0307C34.9314 21.8765 34.9803 21.6561 34.9803 21.3696V11.8159C34.9803 11.6616 34.9423 11.5321 34.8662 11.4274C34.7902 11.3228 34.6489 11.2263 34.4425 11.1382L33.4971 10.8241C33.2472 10.7029 33.0679 10.5734 32.9593 10.4357C32.8506 10.298 32.7963 10.1299 32.7963 9.93157C32.7963 9.73323 32.8642 9.57069 33 9.44397L33.0534 9.39942C33.1835 9.3024 33.3532 9.25389 33.5623 9.25389H34.9925L34.9813 9.1573C34.9508 8.96411 34.8744 8.77868 34.7521 8.60099C34.5891 8.36408 34.4044 8.09686 34.198 7.79934C33.9915 7.50182 33.8068 7.14645 33.6438 6.73323C33.4808 6.32 33.3993 5.81036 33.3993 5.2043C33.3993 3.76077 33.8883 2.6065 34.8662 1.74149C35.8441 0.876477 37.235 0.44397 39.0387 0.44397C40.2013 0.44397 41.1657 0.631298 41.9317 1.00595C42.6977 1.38061 43.2709 1.87923 43.6512 2.50182C44.0315 3.12441 44.2217 3.80485 44.2217 4.54314C44.2217 5.41367 43.9962 6.06656 43.5453 6.50182C43.0943 6.93708 42.5157 7.15471 41.8095 7.15471C41.0271 7.15471 40.3969 6.90127 39.9188 6.39438C39.4407 5.8875 39.2017 5.21532 39.2017 4.37785V2.90678C39.2017 2.5211 39.1256 2.23736 38.9735 2.05554C38.8214 1.87372 38.5877 1.78281 38.2726 1.78281C37.8706 1.78281 37.5664 1.92055 37.3599 2.19604C37.1535 2.47152 37.0502 2.86821 37.0502 3.38612C37.0502 3.91504 37.1725 4.41091 37.417 4.87372C37.6614 5.33653 37.963 5.76904 38.3215 6.17124C38.6801 6.57345 39.0387 6.95912 39.3973 7.32827C39.7558 7.69741 40.0573 8.06105 40.3018 8.41918L40.3715 8.52653C40.5035 8.74108 40.5915 8.95463 40.6355 9.16719L40.6504 9.25389H43.0645C43.3144 9.25389 43.5072 9.30623 43.6431 9.41091C43.7789 9.51559 43.8468 9.67813 43.8468 9.89851C43.8468 10.2291 43.7055 10.4991 43.423 10.7084C43.1405 10.9178 42.695 11.0225 42.0865 11.0225H40.9293V21.32C40.9293 21.6285 40.9755 21.8655 41.0679 22.0307C41.1602 22.196 41.3096 22.2952 41.5161 22.3283L42.9178 22.5431C43.1677 22.5762 43.3524 22.6561 43.4719 22.7828C43.5914 22.9095 43.6512 23.0831 43.6512 23.3035ZM11.5591 23.6836C10.5812 24.1575 9.44029 24.3944 8.13639 24.3944C6.75644 24.3944 5.52045 24.1024 4.42844 23.5183C3.33643 22.9343 2.47532 22.0886 1.8451 20.9812C1.21489 19.8737 0.89978 18.5266 0.89978 16.9398C0.89978 15.4082 1.22847 14.039 1.88585 12.8324C2.54323 11.6258 3.45867 10.6726 4.63218 9.97289C5.80568 9.27317 7.17477 8.92331 8.73944 8.92331C10.0759 8.92331 11.2033 9.12166 12.1214 9.51835C13.0396 9.91504 13.7404 10.4522 14.2239 11.1299C14.7075 11.8076 14.9492 12.5652 14.9492 13.4026C14.9492 14.2842 14.6966 14.9756 14.1913 15.477C13.6861 15.9784 12.9988 16.2291 12.1296 16.2291C11.2386 16.2291 10.5622 15.9729 10.1004 15.4605C9.63859 14.9481 9.40769 14.2456 9.40769 13.3531V12.2952C9.40769 11.7553 9.3099 11.3476 9.11431 11.0721C8.91873 10.7966 8.64165 10.6588 8.28308 10.6588C7.92451 10.6588 7.60125 10.8049 7.31331 11.0969C7.02537 11.3889 6.80262 11.8269 6.64506 12.4109C6.48751 12.9949 6.40873 13.7167 6.40873 14.5762C6.40873 15.8104 6.59073 16.8462 6.95474 17.6836C7.31874 18.5211 7.81585 19.1492 8.44607 19.5679C9.07628 19.9867 9.79342 20.196 10.5975 20.196C11.4016 20.196 12.0752 20.0776 12.6185 19.8407C13.1618 19.6038 13.5801 19.2043 13.8735 18.6423C14.0365 18.488 14.1642 18.3889 14.2565 18.3448C14.3489 18.3007 14.4385 18.2787 14.5255 18.2787C14.6341 18.2897 14.7238 18.342 14.7944 18.4357C14.865 18.5294 14.8949 18.6754 14.884 18.8737C14.7971 19.9536 14.4657 20.9068 13.8898 21.7332C13.3139 22.5597 12.537 23.2098 11.5591 23.6836ZM28.1267 23.3531C26.9043 24.0252 25.4836 24.3613 23.8646 24.3613C22.2891 24.3613 20.9064 24.0335 19.7166 23.3779C18.5268 22.7222 17.6005 21.8159 16.9377 20.6588C16.2749 19.5018 15.9435 18.163 15.9435 16.6423C15.9435 15.1878 16.2912 13.8792 16.9866 12.7167C17.682 11.5542 18.6436 10.6313 19.8714 9.9481C21.0993 9.26491 22.5118 8.92331 24.1091 8.92331C25.6955 8.92331 27.0809 9.25389 28.2653 9.91504C29.4496 10.5762 30.3732 11.4908 31.036 12.6588C31.6988 13.8269 32.0303 15.1768 32.0303 16.7084C32.0303 18.163 31.6853 19.466 30.9953 20.6175C30.3053 21.769 29.3491 22.6809 28.1267 23.3531ZM25.1033 22.6423C24.7665 22.7084 24.4378 22.5597 24.1172 22.196C23.7967 21.8324 23.4925 21.2208 23.2045 20.3613C22.9166 19.5018 22.6422 18.3723 22.3814 16.9729C22.1315 15.5734 21.9903 14.4219 21.9577 13.5183C21.9251 12.6148 21.9903 11.9316 22.1533 11.4688C22.3162 11.006 22.5662 10.736 22.903 10.6588C23.2398 10.5927 23.5685 10.7415 23.8891 11.1051C24.2096 11.4688 24.5166 12.0803 24.8099 12.9398C25.1033 13.7993 25.3804 14.9288 25.6412 16.3283C25.9019 17.7277 26.0459 18.882 26.0731 19.7911C26.1003 20.7002 26.0296 21.3861 25.8612 21.8489C25.6928 22.3117 25.4402 22.5762 25.1033 22.6423ZM54.2616 24.0638C54.7723 24.0638 55.0277 23.8104 55.0277 23.3035C55.0277 23.0831 54.9679 22.9095 54.8484 22.7828C54.7289 22.6561 54.5442 22.5762 54.2942 22.5431L52.8926 22.3283C52.6861 22.2952 52.5367 22.196 52.4443 22.0307C52.352 21.8655 52.3058 21.6285 52.3058 21.32V11.0225H53.463C54.0715 11.0225 54.517 10.9178 54.7995 10.7084C55.082 10.4991 55.2233 10.2291 55.2233 9.89851C55.2233 9.67813 55.1554 9.51559 55.0195 9.41091C54.8837 9.30623 54.6908 9.25389 54.4409 9.25389H52.0269L52.012 9.16719C51.968 8.95463 51.88 8.74108 51.748 8.52653L51.6783 8.41918C51.4338 8.06105 51.1323 7.69741 50.7737 7.32827C50.4152 6.95912 50.0566 6.57345 49.698 6.17124C49.3394 5.76904 49.0379 5.33653 48.7934 4.87372C48.549 4.41091 48.4267 3.91504 48.4267 3.38612C48.4267 2.86821 48.5299 2.47152 48.7364 2.19604C48.9428 1.92055 49.2471 1.78281 49.6491 1.78281C49.9642 1.78281 50.1978 1.87372 50.35 2.05554C50.5021 2.23736 50.5781 2.5211 50.5781 2.90678V4.37785C50.5781 5.21532 50.8172 5.8875 51.2953 6.39438C51.7734 6.90127 52.4036 7.15471 53.1859 7.15471C53.8922 7.15471 54.4708 6.93708 54.9217 6.50182C55.3727 6.06656 55.5981 5.41367 55.5981 4.54314C55.5981 3.80485 55.408 3.12441 55.0277 2.50182C54.6474 1.87923 54.0742 1.38061 53.3082 1.00595C52.5421 0.631298 51.5778 0.44397 50.4152 0.44397C48.6114 0.44397 47.2206 0.876477 46.2427 1.74149C45.2648 2.6065 44.7758 3.76077 44.7758 5.2043C44.7758 5.81036 44.8573 6.32 45.0203 6.73323C45.1833 7.14645 45.368 7.50182 45.5745 7.79934C45.7809 8.09686 45.9656 8.36408 46.1286 8.60099C46.2508 8.77868 46.3272 8.96411 46.3578 9.1573L46.369 9.25389H44.9388C44.7296 9.25389 44.56 9.3024 44.4299 9.39942L44.3765 9.44397C44.2407 9.57069 44.1728 9.73323 44.1728 9.93157C44.1728 10.1299 44.2271 10.298 44.3358 10.4357C44.4444 10.5734 44.6237 10.7029 44.8736 10.8241L45.8189 11.1382C46.0254 11.2263 46.1666 11.3228 46.2427 11.4274C46.3188 11.5321 46.3568 11.6616 46.3568 11.8159V21.3696C46.3568 21.6561 46.3079 21.8765 46.2101 22.0307C46.1123 22.185 45.9765 22.2897 45.8026 22.3448L45.1018 22.5597C44.9062 22.6368 44.7622 22.736 44.6699 22.8572C44.5775 22.9784 44.5313 23.1382 44.5313 23.3365C44.5313 23.5679 44.5992 23.747 44.7351 23.8737C44.8709 24.0004 45.0475 24.0638 45.2648 24.0638H54.2616ZM67.0235 23.5845C65.9695 24.1244 64.7526 24.3944 63.3726 24.3944C61.8514 24.3944 60.5149 24.0776 59.3631 23.444C58.2114 22.8104 57.3122 21.9233 56.6657 20.7828C56.0192 19.6423 55.6959 18.3228 55.6959 16.8241C55.6959 15.2484 56.0083 13.8682 56.6331 12.6836C57.2579 11.4991 58.1625 10.5762 59.3468 9.91504C60.5312 9.25389 61.9546 8.92331 63.6171 8.92331C65.0296 8.92331 66.2466 9.20155 67.268 9.75802C68.2894 10.3145 69.0744 11.0693 69.6231 12.0225C70.1719 12.9756 70.4462 14.0363 70.4462 15.2043C70.4462 15.7112 70.3104 16.1106 70.0388 16.4026L69.974 16.4674C69.7062 16.7163 69.3367 16.8407 68.8653 16.8407H61.4145L61.4305 16.9169C61.6282 17.8244 61.9659 18.551 62.4436 19.0969C63.2585 20.028 64.3451 20.4936 65.7033 20.4936C66.5726 20.4936 67.3413 20.2952 68.0096 19.8985C68.6778 19.5018 69.126 18.9509 69.3542 18.2456C69.4846 18.1024 69.6014 18.006 69.7046 17.9564C69.8079 17.9068 69.8975 17.882 69.9736 17.882C70.0822 17.882 70.1746 17.9261 70.2506 18.0142C70.3267 18.1024 70.3647 18.2511 70.3647 18.4605C70.3647 19.5404 70.0714 20.5294 69.4846 21.4274C68.8979 22.3255 68.0775 23.0445 67.0235 23.5845ZM61.2444 15.5157C61.2289 15.2621 61.2212 14.9985 61.2212 14.725C61.2212 13.6891 61.2972 12.8737 61.4494 12.2787C61.6015 11.6836 61.7971 11.2622 62.0361 11.0142C62.2752 10.7663 62.5414 10.6423 62.8347 10.6423C63.215 10.6423 63.5709 10.9674 63.9023 11.6175C64.2337 12.2677 64.3994 13.3476 64.3994 14.8572C64.3994 15.32 64.193 15.5514 63.7801 15.5514H61.2465L61.2444 15.5157ZM82.605 23.5845C81.5511 24.1244 80.3341 24.3944 78.9541 24.3944C77.4329 24.3944 76.0964 24.0776 74.9447 23.444C73.7929 22.8104 72.8937 21.9233 72.2472 20.7828C71.6007 19.6423 71.2775 18.3228 71.2775 16.8241C71.2775 15.2484 71.5899 13.8682 72.2146 12.6836C72.8394 11.4991 73.744 10.5762 74.9284 9.91504C76.1127 9.25389 77.5361 8.92331 79.1986 8.92331C80.6112 8.92331 81.8281 9.20155 82.8495 9.75802C83.8709 10.3145 84.656 11.0693 85.2047 12.0225C85.7534 12.9756 86.0278 14.0363 86.0278 15.2043C86.0278 15.7112 85.8919 16.1106 85.6203 16.4026L85.5555 16.4674C85.2878 16.7163 84.9182 16.8407 84.4468 16.8407H76.996L77.012 16.9169C77.2097 17.8244 77.5474 18.551 78.0251 19.0969C78.84 20.028 79.9266 20.4936 81.2848 20.4936C82.1541 20.4936 82.9229 20.2952 83.5911 19.8985C84.2594 19.5018 84.7076 18.9509 84.9357 18.2456C85.0661 18.1024 85.1829 18.006 85.2862 17.9564C85.3894 17.9068 85.479 17.882 85.5551 17.882C85.6638 17.882 85.7561 17.9261 85.8322 18.0142C85.9082 18.1024 85.9463 18.2511 85.9463 18.4605C85.9463 19.5404 85.6529 20.5294 85.0661 21.4274C84.4794 22.3255 83.659 23.0445 82.605 23.5845ZM76.826 15.5157C76.8105 15.2621 76.8027 14.9985 76.8027 14.725C76.8027 13.6891 76.8788 12.8737 77.0309 12.2787C77.183 11.6836 77.3786 11.2622 77.6176 11.0142C77.8567 10.7663 78.1229 10.6423 78.4163 10.6423C78.7966 10.6423 79.1524 10.9674 79.4838 11.6175C79.8152 12.2677 79.981 13.3476 79.981 14.8572C79.981 15.32 79.7745 15.5514 79.3616 15.5514H76.8281L76.826 15.5157ZM96.4997 23.8572C96.3638 23.9949 96.1655 24.0638 95.9048 24.0638H87.7554C87.5164 24.0638 87.3289 23.9977 87.1931 23.8655C87.0573 23.7332 86.9894 23.5514 86.9894 23.32C86.9894 23.1437 87.0301 22.9977 87.1116 22.882C87.1931 22.7663 87.3045 22.6588 87.4457 22.5597L87.8206 22.4109C87.9619 22.3448 88.0597 22.2401 88.114 22.0969C88.1683 21.9536 88.1955 21.7167 88.1955 21.3861V12.9894C88.1955 12.725 88.1656 12.5349 88.1058 12.4192C88.0461 12.3035 87.9456 12.2126 87.8043 12.1464L87.3805 12.0969C87.2284 12.0087 87.1171 11.915 87.0464 11.8159C86.9758 11.7167 86.9405 11.59 86.9405 11.4357C86.9405 11.2594 86.9948 11.1024 87.1035 10.9646C87.2121 10.8269 87.3968 10.7084 87.6576 10.6093L92.2864 9.27042C92.5581 9.16022 92.7863 9.08309 92.971 9.03901C93.1557 8.99493 93.3133 8.9729 93.4437 8.9729C93.6284 8.9729 93.7669 9.03901 93.8593 9.17124L93.8889 9.2192C93.9651 9.35741 94.0177 9.57834 94.0467 9.88199L94.1708 12.4504L94.1991 12.3556C94.2541 12.1767 94.3147 12.005 94.3808 11.8407C94.7774 10.8544 95.3017 10.1217 95.9537 9.64232C96.6056 9.16298 97.3173 8.92331 98.0888 8.92331C99.0232 8.92331 99.7404 9.23736 100.24 9.86546C100.74 10.4936 100.99 11.4467 100.99 12.725C100.99 13.9922 100.729 14.9233 100.208 15.5183C99.6861 16.1134 99.0124 16.4109 98.1866 16.4109C97.3825 16.4109 96.7876 16.2071 96.4019 15.7993C96.0161 15.3916 95.8124 14.8131 95.7907 14.0638L95.7744 13.4026C95.7635 13.1492 95.7146 12.9509 95.6277 12.8076C95.5407 12.6644 95.3995 12.5927 95.2039 12.5927C95.0083 12.5927 94.8372 12.6947 94.6905 12.8985C94.5438 13.1024 94.4324 13.4137 94.3564 13.8324C94.2803 14.2511 94.2423 14.7856 94.2423 15.4357V21.2539C94.2423 21.5624 94.2912 21.8076 94.389 21.9894C94.4868 22.1712 94.6389 22.2842 94.8453 22.3283L96.0677 22.5762C96.2959 22.6093 96.4589 22.6947 96.5567 22.8324C96.6545 22.9701 96.7034 23.1327 96.7034 23.32C96.7034 23.5404 96.6355 23.7195 96.4997 23.8572ZM109.53 24.3613C111.149 24.3613 112.57 24.0252 113.793 23.3531C115.015 22.6809 115.971 21.769 116.661 20.6175C117.351 19.466 117.696 18.163 117.696 16.7084C117.696 15.1768 117.365 13.8269 116.702 12.6588C116.039 11.4908 115.115 10.5762 113.931 9.91504C112.747 9.25389 111.361 8.92331 109.775 8.92331C108.178 8.92331 106.765 9.26491 105.537 9.9481C104.309 10.6313 103.348 11.5542 102.652 12.7167C101.957 13.8792 101.609 15.1878 101.609 16.6423C101.609 18.163 101.941 19.5018 102.604 20.6588C103.266 21.8159 104.193 22.7222 105.382 23.3779C106.572 24.0335 107.955 24.3613 109.53 24.3613ZM109.783 22.196C110.104 22.5597 110.432 22.7084 110.769 22.6423C111.106 22.5762 111.359 22.3117 111.527 21.8489C111.695 21.3861 111.766 20.7002 111.739 19.7911C111.712 18.882 111.568 17.7277 111.307 16.3283C111.046 14.9288 110.769 13.7993 110.476 12.9398C110.182 12.0803 109.875 11.4688 109.555 11.1051C109.234 10.7415 108.906 10.5927 108.569 10.6588C108.232 10.736 107.982 11.006 107.819 11.4688C107.656 11.9316 107.591 12.6148 107.624 13.5183C107.656 14.4219 107.797 15.5734 108.047 16.9729C108.308 18.3723 108.582 19.5018 108.87 20.3613C109.158 21.2208 109.463 21.8324 109.783 22.196ZM130.621 24.3944C131.534 24.3944 132.283 24.2263 132.87 23.8903C133.457 23.5542 133.894 23.1547 134.182 22.6919C134.47 22.2291 134.614 21.8049 134.614 21.4192C134.614 21.2539 134.579 21.1161 134.508 21.006C134.438 20.8958 134.342 20.8407 134.223 20.8407C134.169 20.8407 134.12 20.8517 134.076 20.8737C134.033 20.8958 133.995 20.9288 133.962 20.9729C133.908 21.1712 133.824 21.309 133.71 21.3861C133.595 21.4633 133.473 21.5018 133.343 21.5018C133.158 21.5018 133.02 21.4385 132.927 21.3117C132.835 21.185 132.789 21.017 132.789 20.8076V13.5018C132.789 12.0473 132.297 10.9206 131.314 10.1217C130.33 9.32276 128.79 8.92331 126.693 8.92331C125.063 8.92331 123.702 9.12716 122.61 9.53488C121.518 9.94259 120.698 10.4633 120.149 11.0969C119.6 11.7305 119.326 12.3779 119.326 13.039C119.326 13.7442 119.53 14.2814 119.937 14.6506C120.345 15.0197 120.934 15.2043 121.706 15.2043C122.651 15.2043 123.395 14.9481 123.938 14.4357C124.482 13.9233 124.753 13.2594 124.753 12.444V11.1878C124.753 10.8792 124.848 10.6396 125.039 10.4688C125.229 10.298 125.465 10.2126 125.748 10.2126C126.052 10.2126 126.294 10.3255 126.473 10.5514C126.652 10.7773 126.742 11.0831 126.742 11.4688L126.741 16.2869L126.655 16.2681C126.393 16.2175 126.089 16.1885 125.744 16.1813L125.568 16.1795C123.232 16.1795 121.491 16.5762 120.345 17.3696C119.198 18.163 118.625 19.2704 118.625 20.6919C118.625 21.7718 119.019 22.6588 119.807 23.3531C120.595 24.0473 121.64 24.3944 122.944 24.3944C123.922 24.3944 124.835 24.1933 125.682 23.7911C126.318 23.4894 126.835 23.0932 127.232 22.6025L127.254 22.5739L127.278 22.6479C127.404 23.0051 127.633 23.3252 127.967 23.6081L128.07 23.6919C128.673 24.1602 129.523 24.3944 130.621 24.3944ZM125.006 21.2787C125.272 21.6368 125.623 21.8159 126.057 21.8159L126.151 21.8126C126.336 21.7997 126.515 21.7481 126.688 21.6577L126.741 21.6276V17.3861L126.66 17.3613C126.476 17.3117 126.258 17.2869 126.008 17.2869C125.585 17.2869 125.245 17.4853 124.99 17.882C124.734 18.2787 124.607 18.8627 124.607 19.6341C124.607 20.3723 124.74 20.9206 125.006 21.2787ZM142.111 24.444C144.046 24.444 145.529 23.9977 146.561 23.1051C147.593 22.2126 148.109 20.9949 148.109 19.4522C148.109 18.5156 147.936 17.6947 147.588 16.9894C147.24 16.2842 146.632 15.6588 145.762 15.1134C144.893 14.5679 143.671 14.0528 142.095 13.5679C141.508 13.3806 141.055 13.1905 140.734 12.9977C140.414 12.8049 140.194 12.5982 140.074 12.3779C139.955 12.1575 139.895 11.9206 139.895 11.6671C139.895 11.2925 140.031 10.9894 140.302 10.758C140.574 10.5266 140.976 10.4109 141.508 10.4109C142.247 10.4109 142.945 10.6588 143.603 11.1547C144.26 11.6506 144.986 12.4991 145.779 13.7002C145.985 13.9536 146.192 14.1382 146.398 14.2539C146.604 14.3696 146.8 14.4054 146.985 14.3613C147.213 14.2952 147.354 14.1437 147.409 13.9068C147.463 13.6699 147.452 13.331 147.376 12.8903L146.952 9.84893C146.909 9.52937 146.827 9.30347 146.708 9.17124C146.588 9.03901 146.431 8.9729 146.235 8.9729C146.061 8.9729 145.844 9.0335 145.583 9.15471C145.322 9.27593 145.064 9.39989 144.809 9.52661C144.554 9.65334 144.361 9.7167 144.23 9.7167C144.111 9.7167 143.934 9.65058 143.701 9.51835C143.467 9.38612 143.138 9.25389 142.715 9.12166C142.291 8.98942 141.742 8.92331 141.068 8.92331C139.949 8.92331 138.941 9.12716 138.045 9.53488C137.149 9.94259 136.442 10.5239 135.926 11.2787C135.41 12.0335 135.152 12.9343 135.152 13.9812C135.152 14.9068 135.345 15.7167 135.731 16.4109C136.116 17.1051 136.706 17.7002 137.499 18.196C138.292 18.6919 139.292 19.0941 140.498 19.4026C141.28 19.612 141.881 19.8241 142.299 20.039C142.717 20.2539 143.005 20.488 143.163 20.7415C143.32 20.9949 143.399 21.2759 143.399 21.5845C143.399 21.9922 143.263 22.3283 142.992 22.5927C142.72 22.8572 142.307 22.9894 141.753 22.9894C141.231 22.9894 140.734 22.8765 140.262 22.6506C139.789 22.4247 139.303 22.0363 138.803 21.4853C138.303 20.9343 137.743 20.1795 137.124 19.2208C136.939 18.9674 136.73 18.7911 136.497 18.6919C136.263 18.5927 136.027 18.5982 135.788 18.7084C135.559 18.7966 135.413 18.9839 135.348 19.2704C135.282 19.5569 135.299 19.9095 135.396 20.3283L135.902 23.6175C135.978 23.9481 136.086 24.1685 136.228 24.2787C136.369 24.3889 136.521 24.444 136.684 24.444C136.869 24.444 137.094 24.3834 137.36 24.2622L138.159 23.8985C138.425 23.7773 138.64 23.7167 138.803 23.7167C138.966 23.7167 139.18 23.7773 139.447 23.8985C139.713 24.0197 140.061 24.1409 140.49 24.2622C140.919 24.3834 141.46 24.444 142.111 24.444ZM157.563 23.8241C156.846 24.2043 155.998 24.3944 155.02 24.3944C153.368 24.3944 152.127 23.9922 151.296 23.1878C150.465 22.3834 150.049 21.1161 150.049 19.3861V11.915C150.049 11.6836 150.027 11.5073 149.984 11.3861C149.94 11.2649 149.832 11.1657 149.658 11.0886L148.892 10.8407C148.707 10.7525 148.588 10.6451 148.533 10.5183C148.479 10.3916 148.452 10.2346 148.452 10.0473C148.452 9.81587 148.533 9.62579 148.696 9.47703C148.859 9.32827 149.06 9.25389 149.299 9.25389H150.098C150.196 9.25389 150.299 9.21532 150.408 9.13818C150.516 9.06105 150.663 8.90678 150.848 8.67537L153.863 6.14645C154.08 5.88199 154.297 5.68088 154.515 5.54314C154.732 5.4054 154.949 5.33653 155.167 5.33653C155.417 5.33653 155.612 5.41367 155.753 5.56794L155.798 5.62262C155.91 5.77717 155.965 6.00136 155.965 6.29521L155.965 9.25389H159.372C159.611 9.25389 159.796 9.30623 159.926 9.41091C160.056 9.5156 160.122 9.67813 160.122 9.89852C160.122 10.2071 159.986 10.4715 159.714 10.6919L159.653 10.7374C159.38 10.9275 158.965 11.0225 158.41 11.0225H155.965L155.965 18.5597C155.965 19.3861 156.104 19.9977 156.381 20.3944C156.658 20.7911 157.063 20.9894 157.595 20.9894C157.823 20.9894 158.035 20.9398 158.231 20.8407C158.426 20.7415 158.603 20.612 158.761 20.4522C158.918 20.2925 159.068 20.1134 159.209 19.915C159.35 19.7167 159.486 19.5184 159.616 19.32C159.725 19.2759 159.82 19.2952 159.902 19.3779C159.983 19.4605 160.018 19.6285 160.007 19.882C159.931 20.7745 159.684 21.5597 159.266 22.2374C158.848 22.915 158.28 23.444 157.563 23.8241ZM168.238 24.3944C169.618 24.3944 170.835 24.1244 171.889 23.5845C172.943 23.0445 173.764 22.3255 174.35 21.4274C174.937 20.5294 175.23 19.5404 175.23 18.4605C175.23 18.2511 175.192 18.1024 175.116 18.0142C175.04 17.9261 174.948 17.882 174.839 17.882C174.763 17.882 174.674 17.9068 174.57 17.9564C174.467 18.006 174.35 18.1024 174.22 18.2456C173.992 18.9509 173.543 19.5018 172.875 19.8985C172.207 20.2952 171.438 20.4936 170.569 20.4936C169.211 20.4936 168.124 20.028 167.309 19.0969C166.832 18.551 166.494 17.8244 166.296 16.9169L166.28 16.8407H173.731C174.202 16.8407 174.572 16.7163 174.84 16.4674L174.904 16.4026C175.176 16.1106 175.312 15.7112 175.312 15.2043C175.312 14.0363 175.038 12.9756 174.489 12.0225C173.94 11.0693 173.155 10.3145 172.134 9.75802C171.112 9.20155 169.895 8.92331 168.483 8.92331C166.82 8.92331 165.397 9.25389 164.213 9.91504C163.028 10.5762 162.124 11.4991 161.499 12.6836C160.874 13.8682 160.562 15.2484 160.562 16.8241C160.562 18.3228 160.885 19.6423 161.531 20.7828C162.178 21.9233 163.077 22.8104 164.229 23.444C165.381 24.0776 166.717 24.3944 168.238 24.3944ZM166.087 14.725C166.087 14.9985 166.095 15.2621 166.11 15.5157L166.112 15.5514H168.646C169.059 15.5514 169.265 15.32 169.265 14.8572C169.265 13.3476 169.099 12.2677 168.768 11.6175C168.437 10.9674 168.081 10.6423 167.7 10.6423C167.407 10.6423 167.141 10.7663 166.902 11.0142C166.663 11.2622 166.467 11.6836 166.315 12.2787C166.163 12.8737 166.087 13.6891 166.087 14.725ZM185.189 24.0638C185.45 24.0638 185.648 23.9949 185.784 23.8572C185.92 23.7195 185.988 23.5404 185.988 23.32C185.988 23.1327 185.939 22.9701 185.841 22.8324C185.743 22.6947 185.58 22.6093 185.352 22.5762L184.129 22.3283C183.923 22.2842 183.771 22.1712 183.673 21.9894C183.575 21.8076 183.526 21.5624 183.526 21.2539V15.4357C183.526 14.7856 183.564 14.2511 183.641 13.8324C183.717 13.4137 183.828 13.1024 183.975 12.8985C184.121 12.6947 184.292 12.5927 184.488 12.5927C184.684 12.5927 184.825 12.6644 184.912 12.8076C184.999 12.9509 185.048 13.1492 185.059 13.4026L185.075 14.0638C185.097 14.8131 185.3 15.3916 185.686 15.7993C186.072 16.2071 186.667 16.4109 187.471 16.4109C188.297 16.4109 188.97 16.1134 189.492 15.5183C190.013 14.9233 190.274 13.9922 190.274 12.725C190.274 11.4467 190.024 10.4936 189.524 9.86546C189.025 9.23736 188.307 8.92331 187.373 8.92331C186.601 8.92331 185.89 9.16298 185.238 9.64232C184.586 10.1217 184.062 10.8544 183.665 11.8407C183.599 12.005 183.538 12.1767 183.483 12.3556L183.455 12.4509L183.331 9.88199C183.302 9.57834 183.249 9.35741 183.173 9.2192L183.143 9.17124C183.051 9.03901 182.913 8.9729 182.728 8.9729C182.597 8.9729 182.44 8.99493 182.255 9.03901C182.07 9.08309 181.842 9.16022 181.571 9.27042L176.942 10.6093C176.681 10.7084 176.496 10.8269 176.388 10.9646C176.279 11.1024 176.225 11.2594 176.225 11.4357C176.225 11.59 176.26 11.7167 176.331 11.8159C176.401 11.915 176.513 12.0087 176.665 12.0969L177.088 12.1464C177.23 12.2126 177.33 12.3035 177.39 12.4192C177.45 12.5349 177.48 12.725 177.48 12.9894V21.3861C177.48 21.7167 177.452 21.9536 177.398 22.0969C177.344 22.2401 177.246 22.3448 177.105 22.4109L176.73 22.5597C176.589 22.6588 176.477 22.7663 176.396 22.882C176.314 22.9977 176.274 23.1437 176.274 23.32C176.274 23.5514 176.341 23.7332 176.477 23.8655C176.613 23.9977 176.801 24.0638 177.04 24.0638H185.189ZM202.351 23.1051C201.319 23.9977 199.836 24.444 197.902 24.444C197.25 24.444 196.709 24.3834 196.28 24.2622C195.851 24.1409 195.503 24.0197 195.237 23.8985C194.971 23.7773 194.756 23.7167 194.593 23.7167C194.43 23.7167 194.216 23.7773 193.949 23.8985L193.151 24.2622C192.885 24.3834 192.659 24.444 192.474 24.444C192.311 24.444 192.159 24.3889 192.018 24.2787C191.877 24.1685 191.768 23.9481 191.692 23.6175L191.187 20.3283C191.089 19.9095 191.073 19.5569 191.138 19.2704C191.203 18.9839 191.35 18.7966 191.578 18.7084C191.817 18.5982 192.053 18.5927 192.287 18.6919C192.521 18.7911 192.73 18.9674 192.914 19.2208C193.534 20.1795 194.093 20.9343 194.593 21.4853C195.093 22.0363 195.579 22.4247 196.052 22.6506C196.525 22.8765 197.022 22.9894 197.543 22.9894C198.097 22.9894 198.51 22.8572 198.782 22.5927C199.054 22.3283 199.189 21.9922 199.189 21.5845C199.189 21.2759 199.111 20.9949 198.953 20.7415C198.796 20.488 198.508 20.2539 198.089 20.039C197.671 19.8241 197.071 19.612 196.288 19.4026C195.082 19.0941 194.083 18.6919 193.289 18.196C192.496 17.7002 191.907 17.1051 191.521 16.4109C191.135 15.7167 190.942 14.9068 190.942 13.9812C190.942 12.9343 191.2 12.0335 191.717 11.2787C192.233 10.5239 192.939 9.94259 193.835 9.53488C194.732 9.12716 195.74 8.92331 196.859 8.92331C197.532 8.92331 198.081 8.98942 198.505 9.12166C198.929 9.25389 199.257 9.38612 199.491 9.51835C199.725 9.65058 199.901 9.7167 200.021 9.7167C200.151 9.7167 200.344 9.65334 200.599 9.52661C200.855 9.39989 201.113 9.27593 201.373 9.15471C201.634 9.0335 201.852 8.9729 202.025 8.9729C202.221 8.9729 202.379 9.03901 202.498 9.17124C202.618 9.30347 202.699 9.52937 202.743 9.84893L203.166 12.8903C203.242 13.331 203.253 13.6699 203.199 13.9068C203.145 14.1437 203.003 14.2952 202.775 14.3613C202.59 14.4054 202.395 14.3696 202.188 14.2539C201.982 14.1382 201.776 13.9536 201.569 13.7002C200.776 12.4991 200.051 11.6506 199.393 11.1547C198.736 10.6588 198.038 10.4109 197.299 10.4109C196.766 10.4109 196.364 10.5266 196.093 10.758C195.821 10.9894 195.685 11.2925 195.685 11.6671C195.685 11.9206 195.745 12.1575 195.865 12.3779C195.984 12.5982 196.204 12.8049 196.525 12.9977C196.845 13.1905 197.299 13.3806 197.886 13.5679C199.461 14.0528 200.684 14.5679 201.553 15.1134C202.422 15.6588 203.031 16.2842 203.378 16.9894C203.726 17.6947 203.9 18.5156 203.9 19.4522C203.9 20.9949 203.384 22.2126 202.351 23.1051Z" fill="white"/>
</svg>
